<svg width="19" height="21" viewBox="0 0 19 21" fill="none" xmlns="http://www.w3.org/2000/svg">
<g clip-path="url(#clip0)">
<path d="M0 11.7705C0 11.4964 0 11.2223 0 10.9613C0 10.9352 0.0133848 10.9091 0.0133848 10.883C0.0267695 10.6741 0.0401543 10.4653 0.0669239 10.2434C0.187387 9.35594 0.455082 8.50759 0.923549 7.73754C1.65971 6.52374 2.70372 5.68844 4.09574 5.27079C4.6579 5.10112 5.23345 5.02281 5.83576 5.06197C6.25069 5.10112 6.63885 5.19248 7.04039 5.323C7.5624 5.49267 8.0844 5.67539 8.60641 5.84506C8.99457 5.97558 9.38272 6.00168 9.77088 5.85811C10.2661 5.67539 10.7614 5.51877 11.27 5.3491C11.8188 5.16638 12.3675 5.03586 12.9431 4.99671C13.4651 4.95755 13.9871 5.03586 14.4957 5.14028C15.5397 5.36215 16.4499 5.83201 17.1727 6.60205C17.3199 6.75867 17.4404 6.91529 17.5742 7.07191C17.427 7.17632 17.2797 7.25463 17.1459 7.34599C16.5302 7.7767 16.0082 8.29876 15.6602 8.96439C15.1248 9.99547 15.0311 11.0787 15.2988 12.1751C15.6736 13.7152 16.6908 14.7332 18.1498 15.3858C18.1498 15.3988 18.1498 15.4119 18.1498 15.4249C18.1364 15.451 18.123 15.4771 18.1096 15.5032C17.949 15.8948 17.8017 16.2863 17.6277 16.6648C17.1994 17.6045 16.6105 18.4529 15.9546 19.249C15.62 19.6667 15.2453 20.0713 14.8036 20.3976C14.3619 20.7108 13.88 20.9196 13.3312 20.9719C12.9029 20.998 12.488 20.9196 12.0864 20.8022C11.7117 20.6847 11.3503 20.5411 10.9755 20.4106C10.4669 20.241 9.9315 20.1365 9.38272 20.1627C8.82056 20.1757 8.28517 20.3062 7.76317 20.4889C7.34824 20.6325 6.93331 20.7761 6.51838 20.9066C6.35777 20.9588 6.18376 20.9719 6.02315 21.011C5.86253 21.011 5.7153 21.011 5.55468 21.011C5.5413 21.011 5.5413 20.998 5.52791 20.998C5.07283 20.9457 4.67129 20.75 4.3099 20.4889C3.8682 20.1757 3.49343 19.7842 3.14542 19.3665C1.99433 18.0222 1.13771 16.5213 0.58893 14.8376C0.30785 13.9501 0.107078 13.0365 0.0267695 12.1098C0.0267695 12.0054 0.0133848 11.8879 0 11.7705Z" fill="black"/>
<path d="M13.5855 0C13.5855 0.234929 13.5989 0.469857 13.5855 0.704786C13.5587 1.33126 13.3713 1.90553 13.0635 2.4537C12.5683 3.3151 11.899 4.01989 11.0156 4.5289C10.4535 4.84214 9.85115 4.99876 9.20868 4.98571C9.12837 4.98571 9.08822 4.97265 9.07483 4.86824C9.02129 4.1504 9.16852 3.48477 9.47637 2.84525C10.1992 1.37042 11.377 0.469857 12.9832 0.0783095C13.1438 0.0391548 13.291 0.0261032 13.4516 0C13.5052 0 13.5453 0 13.5855 0Z" fill="black"/>
</g>
<defs>
<clipPath id="clip0">
<rect width="18.1364" height="21" fill="white"/>
</clipPath>
</defs>
</svg>
